<?xml version="1.0" standalone="no"?>
<!DOCTYPE svg PUBLIC "-//W3C//DTD SVG 20010904//EN"
 "http://www.w3.org/TR/2001/REC-SVG-20010904/DTD/svg10.dtd">
<svg version="1.0" xmlns="http://www.w3.org/2000/svg"
 width="64.000000pt" height="64.000000pt" viewBox="0 0 64.000000 64.000000"
 preserveAspectRatio="xMidYMid meet">

<g transform="translate(0.000000,64.000000) scale(0.100000,-0.100000)"
fill="#000000" stroke="none">
<path d="M73 598 c-31 -15 -45 -56 -41 -124 2 -47 7 -59 21 -62 15 -3 17 5 17
62 0 85 11 96 96 96 57 0 65 2 62 18 -3 14 -15 17 -68 19 -36 1 -75 -3 -87 -9z"/>
<path d="M417 603 c-4 -3 -7 -12 -7 -20 0 -9 17 -13 64 -13 85 0 96 -11 96
-96 0 -57 2 -65 18 -62 14 3 18 16 20 71 3 63 1 69 -27 97 -27 27 -36 30 -94
30 -35 0 -67 -3 -70 -7z"/>
<path d="M194 446 c-10 -26 0 -71 16 -71 10 0 16 13 18 43 2 33 0 42 -13 42
-8 0 -18 -6 -21 -14z"/>
<path d="M412 418 c2 -30 7 -43 18 -43 24 0 21 79 -3 83 -16 3 -18 -2 -15 -40z"/>
<path d="M304 436 c-3 -8 0 -33 6 -56 11 -41 10 -44 -15 -64 -23 -18 -25 -24
-13 -33 11 -10 21 -8 47 8 32 19 33 23 28 63 -11 79 -38 121 -53 82z"/>
<path d="M216 242 c-25 -25 37 -62 104 -62 67 0 129 37 104 62 -3 4 -21 0 -39
-8 -44 -18 -86 -18 -130 0 -18 8 -36 12 -39 8z"/>
<path d="M37 223 c-4 -3 -7 -35 -7 -70 0 -58 3 -67 30 -94 28 -28 34 -30 97
-27 55 2 68 6 71 20 3 16 -5 18 -62 18 -85 0 -96 11 -96 96 0 47 -4 64 -13 64
-8 0 -17 -3 -20 -7z"/>
<path d="M570 166 c0 -85 -11 -96 -96 -96 -57 0 -65 -2 -62 -18 3 -14 16 -18
71 -20 64 -3 69 -1 98 27 28 29 30 34 27 98 -2 55 -6 68 -20 71 -16 3 -18 -5
-18 -62z"/>
</g>
</svg>
